<?xml version="1.0" encoding="UTF-8" standalone="no"?>
<!DOCTYPE svg PUBLIC "-//W3C//DTD SVG 1.1//EN"
 "http://www.w3.org/Graphics/SVG/1.1/DTD/svg11.dtd">
<!-- Generated by graphviz version 2.40.1 (20161225.0304)
 -->
<!-- Title: %3 Pages: 1 -->
<svg width="159pt" height="296pt"
 viewBox="0.00 0.00 159.11 295.65" xmlns="http://www.w3.org/2000/svg" xmlns:xlink="http://www.w3.org/1999/xlink">
<g id="graph0" class="graph" transform="scale(1 1) rotate(0) translate(4 291.6518)">
<title>%3</title>
<polygon fill="#ffffff" stroke="transparent" points="-4,4 -4,-291.6518 155.1073,-291.6518 155.1073,4 -4,4"/>
<!-- A -->
<g id="node1" class="node">
<title>A</title>
<polygon fill="#d3d3d3" stroke="#000000" points="49.7528,-222.2922 26.7425,-222.2922 26.7425,-205.2922 49.7528,-205.2922 49.7528,-222.2922"/>
<text text-anchor="middle" x="38.2476" y="-211.0922" font-family="Times,serif" font-size="9.00" fill="#000000">A</text>
</g>
<!-- A XOR B -->
<g id="node3" class="node">
<title>A XOR B</title>
<ellipse fill="#add8e6" stroke="#000000" cx="71.2476" cy="-36.4246" rx="36.3494" ry="36.3494"/>
<text text-anchor="middle" x="71.2476" y="-33.7246" font-family="Times,serif" font-size="9.00" fill="#000000">A XOR B</text>
</g>
<!-- A&#45;&gt;A XOR B -->
<g id="edge1" class="edge">
<title>A&#45;&gt;A XOR B</title>
<path fill="none" stroke="#ff0000" stroke-width=".4788" d="M31.2847,-205.1963C23.1883,-194.5948 10.2908,-175.6687 5.2476,-156.9325 -.3068,-136.2966 -2.4704,-128.7772 5.2476,-108.8493 11.5057,-92.691 23.2326,-77.9252 35.0855,-66.0018"/>
<polygon fill="#ff0000" stroke="#ff0000" stroke-width=".4788" points="37.6367,-68.4046 42.4342,-58.9582 32.793,-63.3511 37.6367,-68.4046"/>
</g>
<!-- 2693 -->
<g id="node5" class="node">
<title>2693</title>
<ellipse fill="#ffffff" stroke="#000000" cx="38.2476" cy="-132.8909" rx="24.0833" ry="24.0833"/>
<text text-anchor="middle" x="38.2476" y="-130.1909" font-family="Times,serif" font-size="9.00" fill="#000000">2693</text>
</g>
<!-- A&#45;&gt;2693 -->
<g id="edge6" class="edge">
<title>A&#45;&gt;2693</title>
<path fill="none" stroke="#00ff00" stroke-width=".104" d="M38.2476,-205.1343C38.2476,-196.1042 38.2476,-181.3636 38.2476,-167.5447"/>
<polygon fill="#00ff00" stroke="#00ff00" stroke-width=".104" points="41.7477,-167.2668 38.2476,-157.2668 34.7477,-167.2668 41.7477,-167.2668"/>
</g>
<!-- 1782 -->
<g id="node6" class="node">
<title>1782</title>
<ellipse fill="#ffffff" stroke="#000000" cx="104.2476" cy="-132.8909" rx="24.0833" ry="24.0833"/>
<text text-anchor="middle" x="104.2476" y="-130.1909" font-family="Times,serif" font-size="9.00" fill="#000000">1782</text>
</g>
<!-- A&#45;&gt;1782 -->
<g id="edge4" class="edge">
<title>A&#45;&gt;1782</title>
<path fill="none" stroke="#00ff00" stroke-width="1.2991" d="M45.3108,-205.1343C54.1461,-194.3043 69.6822,-175.2605 82.5855,-159.4438"/>
<polygon fill="#00ff00" stroke="#00ff00" stroke-width="1.2991" points="85.4344,-161.4885 89.0438,-151.5274 80.0104,-157.0636 85.4344,-161.4885"/>
</g>
<!-- B -->
<g id="node2" class="node">
<title>B</title>
<polygon fill="#d3d3d3" stroke="#000000" points="141.2506,-287.6518 119.2447,-287.6518 119.2447,-270.6518 141.2506,-270.6518 141.2506,-287.6518"/>
<text text-anchor="middle" x="130.2476" y="-276.4518" font-family="Times,serif" font-size="9.00" fill="#000000">B</text>
</g>
<!-- 402 -->
<g id="node4" class="node">
<title>402</title>
<ellipse fill="#ffffff" stroke="#000000" cx="130.2476" cy="-213.7922" rx="20.7202" ry="20.7202"/>
<text text-anchor="middle" x="130.2476" y="-211.0922" font-family="Times,serif" font-size="9.00" fill="#000000">402</text>
</g>
<!-- B&#45;&gt;402 -->
<g id="edge3" class="edge">
<title>B&#45;&gt;402</title>
<path fill="none" stroke="#00ff00" stroke-width=".4463" d="M130.2476,-270.6072C130.2476,-263.9494 130.2476,-254.2721 130.2476,-244.7849"/>
<polygon fill="#00ff00" stroke="#00ff00" stroke-width=".4463" points="133.7477,-244.7167 130.2476,-234.7167 126.7477,-244.7168 133.7477,-244.7167"/>
</g>
<!-- 402&#45;&gt;A XOR B -->
<g id="edge8" class="edge">
<title>402&#45;&gt;A XOR B</title>
<path fill="none" stroke="#ff0000" stroke-width=".3956" d="M136.5004,-193.6929C142.1483,-171.9888 148.0629,-136.774 137.2476,-108.8493 130.9896,-92.691 119.2627,-77.9252 107.4098,-66.0018"/>
<polygon fill="#ff0000" stroke="#ff0000" stroke-width=".3956" points="109.7023,-63.3511 100.0611,-58.9582 104.8585,-68.4046 109.7023,-63.3511"/>
</g>
<!-- 402&#45;&gt;1782 -->
<g id="edge5" class="edge">
<title>402&#45;&gt;1782</title>
<path fill="none" stroke="#00ff00" stroke-width=".4972" d="M123.8207,-193.7941C121.0751,-185.251 117.7987,-175.0562 114.7192,-165.4741"/>
<polygon fill="#00ff00" stroke="#00ff00" stroke-width=".4972" points="118.0037,-164.2547 111.6118,-155.8052 111.3394,-166.3966 118.0037,-164.2547"/>
</g>
<!-- 2693&#45;&gt;A XOR B -->
<g id="edge7" class="edge">
<title>2693&#45;&gt;A XOR B</title>
<path fill="none" stroke="#ff0000" stroke-width="1.2916" d="M46.0682,-110.0297C49.0725,-101.2476 52.6134,-90.8966 56.0759,-80.7751"/>
<polygon fill="#ff0000" stroke="#ff0000" stroke-width="1.2916" points="59.4262,-81.7946 59.3514,-71.2 52.803,-79.5289 59.4262,-81.7946"/>
</g>
<!-- 1782&#45;&gt;A XOR B -->
<g id="edge2" class="edge">
<title>1782&#45;&gt;A XOR B</title>
<path fill="none" stroke="#00ff00" stroke-width="2.0699" d="M96.4271,-110.0297C93.4228,-101.2476 89.8819,-90.8966 86.4194,-80.7751"/>
<polygon fill="#00ff00" stroke="#00ff00" stroke-width="2.0699" points="89.6923,-79.5289 83.1439,-71.2 83.0691,-81.7946 89.6923,-79.5289"/>
</g>
</g>
</svg>
